<svg width="200" height="200" viewBox="0 0 200 200" fill="none" xmlns="http://www.w3.org/2000/svg">
  <defs>
    <linearGradient id="gradMain" x1="0%" y1="0%" x2="100%" y2="100%">
      <stop offset="0%" style="stop-color:#ff6200;stop-opacity:1" />
      <stop offset="100%" style="stop-color:#8b5cf6;stop-opacity:1" />
    </linearGradient>
    <linearGradient id="gradAccent" x1="100%" y1="0%" x2="0%" y2="100%">
      <stop offset="0%" style="stop-color:#8b5cf6;stop-opacity:1" />
      <stop offset="100%" style="stop-color:#ff6200;stop-opacity:1" />
    </linearGradient>
  </defs>

  <!-- Hexagonal background -->
  <path d="M 100 20 L 160 55 L 160 130 L 100 165 L 40 130 L 40 55 Z"
        fill="#0d0d1a"
        stroke="url(#gradMain)"
        stroke-width="3"/>

  <!-- D letter - modern geometric -->
  <path d="M 60 70 L 60 130 L 85 130 C 100 130 110 120 110 105 L 110 95 C 110 80 100 70 85 70 Z
           M 70 80 L 82 80 C 92 80 98 86 98 95 L 98 105 C 98 114 92 120 82 120 L 70 120 Z"
        fill="url(#gradMain)"/>

  <!-- C letter - modern geometric -->
  <path d="M 140 95 C 140 80 130 70 115 70 C 100 70 90 80 90 95 L 90 105 C 90 120 100 130 115 130 C 125 130 133 125 137 117
           L 128 113 C 125 118 121 122 115 122 C 105 122 99 116 99 105 L 99 95 C 99 84 105 78 115 78 C 124 78 130 84 130 93 L 130 95 L 118 95 L 118 103 L 140 103 Z"
        fill="url(#gradAccent)"/>

  <!-- Corner accents -->
  <circle cx="42" cy="57" r="3" fill="#ff6200" opacity="0.8"/>
  <circle cx="158" cy="57" r="3" fill="#8b5cf6" opacity="0.8"/>
  <circle cx="100" cy="167" r="3" fill="url(#gradMain)" opacity="0.8"/>
</svg>
